# xmcd
#
# Track frame offsets:
#	150
#	22950
#	47362
#	64537
#	81337
#	98837
#	118862
#	136912
#	155237
#	175437
#
# Disc length: 2606 seconds
#
# Revision: 0
# Processed by: cddbd v1.4PL0 Copyright (c) Steve Scherf et al.
# Submitted via: EasyCDDAExtractor 5.0.5.1
#
DISCID=800a2c0a
DTITLE=张信哲 - 知道
DYEAR=1900
DGENRE=pop
TTITLE0=等待与你相见
TTITLE1=有你真的会快乐吗
TTITLE2=知道
TTITLE3=珍藏我的爱情
TTITLE4=难以抗拒你的容颜
TTITLE5=最想念的季节
TTITLE6=想你的夜
TTITLE7=其实快乐很容易
TTITLE8=I Remember
TTITLE9=永远存在
EXTD=
EXTT0=
EXTT1=
EXTT2=
EXTT3=
EXTT4=
EXTT5=
EXTT6=
EXTT7=
EXTT8=
EXTT9=
PLAYORDER=
